Coordinates
version=1
nRows=10
nColumns=46
inDegrees=yes

Units are S.I. units (second, meters, Newtons, ...)
Angles are in degrees.

endheader
time	pelvis_tilt	pelvis_list	pelvis_rotation	pelvis_tx	pelvis_ty	pelvis_tz	bb_angle	bb_tx	bb_ty	bb_tz	hip_flexion_r	hip_adduction_r	hip_rotation_r	knee_angle_r	knee_angle_r_beta	ankle_angle_r	subtalar_angle_r	mtp_angle_r	crank_angle_r	hip_flexion_l	hip_adduction_l	hip_rotation_l	knee_angle_l	knee_angle_l_beta	ankle_angle_l	subtalar_angle_l	mtp_angle_l	crank_angle_l	lumbar_extension	lumbar_bending	lumbar_rotation	arm_flex_r	arm_add_r	arm_rot_r	elbow_flex_r	pro_sup_r	wrist_flex_r	wrist_dev_r	arm_flex_l	arm_add_l	arm_rot_l	elbow_flex_l	pro_sup_l	wrist_flex_l	wrist_dev_l
      7.50000000	    -21.78277938	      7.26242027	      6.58893337	      0.36243433	      1.20373416	     -0.17046880	      0.00000000	      0.50000000	      0.00000000	      0.25000000	     30.73131691	    -12.00041202	    -11.25099213	     28.72806081	      0.50139925	    -15.83988229	      4.12292888	      0.00000000	      0.00000000	     76.90288916	    -10.08309545	     -0.95912586	    105.24321092	      1.83684055	      7.75080214	     10.16599593	      0.00000000	      0.00000000	    -61.54198245	     -6.97729075	     -8.81354776	     53.28440745	    -25.42004026	     29.92145842	     79.49029251	     49.36156430	      0.00000000	      0.00000000	     77.87376926	    -48.52962213	     60.59133305	     79.60162905	     52.38768197	      0.00000000	      0.00000000
      7.50500000	    -21.97213774	      7.24380134	      6.85040008	      0.36210525	      1.20464450	     -0.17092747	      0.00000000	      0.50000000	      0.00000000	      0.25000000	     30.56359427	    -12.13893572	    -11.36972947	     29.08869430	      0.50769349	    -16.33058286	      3.76273606	      0.00000000	      0.00000000	     77.61411485	     -9.52523302	     -0.93224697	    104.80396682	      1.82917429	      8.19839893	      9.82634575	      0.00000000	      0.00000000	    -61.61726645	     -6.99467082	     -8.87657410	     53.30643890	    -25.61086415	     29.81697904	     79.57904258	     49.36869452	      0.00000000	      0.00000000	     78.49988319	    -48.33417852	     61.03734548	     79.70448292	     52.43124769	      0.00000000	      0.00000000
      7.51000000	    -22.10637948	      7.29114536	      7.10958072	      0.36177365	      1.20594648	     -0.17134308	      0.00000000	      0.50000000	      0.00000000	      0.25000000	     30.49344082	    -12.34783034	    -11.40283531	     29.70762213	      0.51849582	    -16.65304281	      3.34813154	      0.00000000	      0.00000000	     78.13083643	     -8.98611504	     -1.09613650	    104.20054043	      1.81864251	      8.53682843	      9.20991775	      0.00000000	      0.00000000	    -61.83406936	     -7.11319585	     -8.57443336	     52.77986072	    -26.51100508	     29.04683566	     80.54606646	     49.47744151	      0.00000000	      0.00000000	     81.13192020	    -47.64212303	     64.38138842	     79.23612199	     52.58138260	      0.00000000	      0.00000000
      7.51500000	    -22.21336789	      7.25650156	      7.39006409	      0.36151149	      1.20742811	     -0.17196003	      0.00000000	      0.50000000	      0.00000000	      0.25000000	     30.46264874	    -12.47262148	    -11.39519868	     30.49945984	      0.53231599	    -16.80829613	      2.68855363	      0.00000000	      0.00000000	     78.53242477	     -8.40054023	     -1.13466116	    103.47857609	      1.80604186	      8.97906600	      9.07393145	      0.00000000	      0.00000000	    -62.02142291	     -7.00268154	     -8.67315557	     52.90115089	    -26.60191047	     28.96339403	     80.53519414	     49.46662107	      0.00000000	      0.00000000	     81.42263174	    -47.44705944	     64.29545587	     79.34691257	     52.57986382	      0.00000000	      0.00000000
      7.52000000	    -22.35334807	      7.29065247	      7.67746473	      0.36112645	      1.20895246	     -0.17271988	      0.00000000	      0.50000000	      0.00000000	      0.25000000	     30.66936934	    -12.69912470	    -11.31410048	     31.62201645	      0.55190830	    -17.15237887	      1.81953763	      0.00000000	      0.00000000	     78.83042114	     -7.73825600	     -1.27610568	    102.61063378	      1.79089341	      9.45232067	      8.71388292	      0.00000000	      0.00000000	    -62.20669644	     -6.84614090	     -8.82921894	     53.10909423	    -26.69973790	     28.87546753	     80.55551673	     49.45959532	      0.00000000	      0.00000000	     81.82265428	    -47.16449546	     64.32936353	     79.41891586	     52.58376482	      0.00000000	      0.00000000
      7.52500000	    -22.62271209	      7.38495546	      7.87501659	      0.36076420	      1.21050611	     -0.17324067	      0.00000000	      0.50000000	      0.00000000	      0.25000000	     31.19259869	    -12.93407187	    -10.98423405	     32.95006949	      0.57508720	    -17.58613571	      0.96277902	      0.00000000	      0.00000000	     79.06394064	     -7.16724584	     -1.60648806	    101.52920790	      1.77201896	      9.82200984	      8.69573800	      0.00000000	      0.00000000	    -62.27047161	     -6.92174394	     -9.01446969	     53.13570959	    -26.92749110	     28.80018539	     80.59460851	     49.46156602	      0.00000000	      0.00000000	     82.39835136	    -46.94494194	     64.68256142	     79.46290545	     52.61312650	      0.00000000	      0.00000000
      7.53000000	    -22.75300073	      7.14223334	      7.91176695	      0.36063281	      1.21178003	     -0.17430276	      0.00000000	      0.50000000	      0.00000000	      0.25000000	     31.70037550	    -12.83955273	    -10.78136282	     34.48274977	      0.60183752	    -17.91619301	      0.21474745	      0.00000000	      0.00000000	     79.19328541	     -6.80787865	     -1.56855817	    100.52755353	      1.75453680	     10.48181689	      8.33037018	      0.00000000	      0.00000000	    -62.35490816	     -6.79201161	     -8.86151945	     53.36777111	    -27.05408187	     28.65996051	     80.60892220	     49.44812430	      0.00000000	      0.00000000	     82.65422497	    -46.83134132	     64.80002375	     79.55162042	     52.63299792	      0.00000000	      0.00000000
      7.53500000	    -23.10054412	      7.12757124	      8.09966888	      0.36010071	      1.21321546	     -0.17510488	      0.00000000	      0.50000000	      0.00000000	      0.25000000	     32.59305433	    -12.99991681	    -10.35123856	     36.25158144	      0.63270946	    -18.09885086	     -0.99861885	      0.00000000	      0.00000000	     79.27529926	     -6.23625956	     -1.79688386	     99.15923305	      1.73065510	     10.89722387	      7.50561238	      0.00000000	      0.00000000	    -62.32876300	     -6.75197773	     -8.93139453	     53.47693814	    -27.27914322	     28.48517796	     80.58406287	     49.42777460	      0.00000000	      0.00000000	     83.06445526	    -46.64289855	     64.97250168	     79.63931184	     52.65454386	      0.00000000	      0.00000000
      7.54000000	    -23.46508088	      7.09083422	      8.19368887	      0.35960140	      1.21458577	     -0.17573437	      0.00000000	      0.50000000	      0.00000000	      0.25000000	     33.62334209	    -13.09690092	     -9.80457041	     38.12528338	      0.66541172	    -18.43540791	     -2.15027490	      0.00000000	      0.00000000	     79.22144896	     -5.76653994	     -2.01348376	     97.62573048	      1.70389043	     11.35952107	      6.64632793	      0.00000000	      0.00000000	    -62.24978903	     -6.79027259	     -9.00644425	     53.46905804	    -27.39669598	     28.29805811	     80.64207963	     49.42146215	      0.00000000	      0.00000000	     83.48527651	    -46.52425472	     65.28403745	     79.64529826	     52.67691850	      0.00000000	      0.00000000
      7.54500000	    -23.56217586	      6.98659195	      8.29481858	      0.35919293	      1.21641265	     -0.17587326	      0.00000000	      0.50000000	      0.00000000	      0.25000000	     34.41701439	    -13.11859626	     -9.43696204	     40.08048478	      0.69953643	    -18.73496977	     -3.11484757	      0.00000000	      0.00000000	     78.73086268	     -5.41429606	     -2.20083440	     95.90861319	      1.67392108	     11.87418235	      6.73943974	      0.00000000	      0.00000000	    -62.45047033	     -6.71984234	     -9.01294448	     53.65855857	    -27.43256512	     28.05867848	     80.67268027	     49.40137471	      0.00000000	      0.00000000	     83.86904847	    -46.49776839	     65.44487826	     79.53195017	     52.66782202	      0.00000000	      0.00000000
